<!-- else if (eq $icon_name "signal") -->
<svg version="1.0" xmlns="http://www.w3.org/2000/svg" fill="currentColor" stroke-width="1.4465"
    viewBox="0 0 1024 1024" preserveAspectRatio="xMidYMid meet">
    <path d="M 387.48118,18.846064 398.9085,65.13395 A 462.30026,462.30026 0 0 0 271.03822,118.07572 L 246.59243,77.139871 A 502.80216,502.80216 0 0 1 387.48118,18.846064 Z m 244.4579,0 -11.42732,46.287886 a 462.30026,462.30026 0 0 1 127.87028,52.94177 L 773.11713,77.139871 A 506.4184,506.4184 0 0 0 631.93908,18.846064 Z M 73.736108,249.85154 a 505.55051,505.55051 0 0 0 -58.293807,141.0334 l 46.287886,11.42732 A 462.30026,462.30026 0 0 1 114.67195,274.44197 Z M 48.27777,513.11389 a 460.70912,460.70912 0 0 1 5.207388,-69.14253 L 6.329374,436.73888 a 509.16675,509.16675 0 0 0 0,152.60537 l 47.155784,-7.08783 A 462.15561,462.15561 0 0 1 48.27777,513.11389 Z m 724.55006,435.82938 -24.44579,-40.7912 a 459.69657,459.69657 0 0 1 -127.72563,52.94177 l 11.42732,46.28786 a 506.7077,506.7077 0 0 0 140.7441,-58.43843 z M 971.1425,513.11389 a 462.15561,462.15561 0 0 1 -5.20739,69.14253 l 47.15579,7.08783 a 509.16675,509.16675 0 0 0 0,-152.60537 l -47.15579,7.23248 a 460.70912,460.70912 0 0 1 5.20739,69.14253 z m 32.8355,122.0843 -46.28792,-11.42732 A 461.43236,461.43236 0 0 1 904.74831,751.7858 l 40.93585,24.59044 A 504.68261,504.68261 0 0 0 1003.978,635.19819 Z M 578.85266,969.33887 a 461.57701,461.57701 0 0 1 -138.28506,0 l -7.08783,47.15573 a 508.1542,508.1542 0 0 0 152.46072,0 z M 881.17042,786.79101 a 460.13052,460.13052 0 0 1 -97.78316,97.63851 l 28.35133,38.47681 A 513.65089,513.65089 0 0 0 919.64722,815.43164 Z m -97.78316,-645.1374 a 460.85377,460.85377 0 0 1 97.78316,97.78315 l 38.4768,-28.64063 A 512.92764,512.92764 0 0 0 812.02789,103.1768 Z M 138.24985,239.43676 A 460.85377,460.85377 0 0 1 236.033,141.65361 L 207.39237,103.1768 A 512.92764,512.92764 0 0 0 99.773043,210.79613 Z m 807.43431,10.41478 -40.93585,24.59043 a 459.69657,459.69657 0 0 1 52.94177,127.72564 L 1003.978,390.74029 A 504.68261,504.68261 0 0 0 945.68416,249.85154 Z M 440.5676,56.888921 a 461.57701,461.57701 0 0 1 138.28506,0 l 7.08783,-47.1557846 a 508.1542,508.1542 0 0 0 -152.46072,0 z M 162.69563,935.6355 64.189231,958.49014 87.188525,859.98373 40.755989,849.13501 17.756695,947.64142 a 47.734383,47.734383 0 0 0 35.583813,57.42588 49.904127,49.904127 0 0 0 21.697447,0 L 173.54436,982.35733 Z M 50.592165,806.60802 97.16935,817.31209 113.08081,749.03746 A 457.38217,457.38217 0 0 1 61.730187,623.77087 l -46.287886,11.42732 a 511.04719,511.04719 0 0 0 46.866485,121.07175 z m 222.760445,103.27984 -68.27463,15.91146 10.84872,46.57719 50.19343,-11.71662 a 504.82726,504.82726 0 0 0 121.07175,46.86641 L 398.6192,961.23848 A 458.10542,458.10542 0 0 1 273.78656,909.59856 Z M 509.71013,99.415916 C 281.16369,99.560566 96.156803,284.85675 96.156803,513.25854 A 414.71053,414.71053 0 0 0 159.65799,733.126 l -39.77865,169.81868 169.67403,-39.77865 c 193.39658,121.65035 448.84785,63.64584 570.4982,-129.60608 121.65035,-193.25193 63.79049,-448.7032 -129.46143,-570.4982"/>
</svg>